<svg width="32" height="32" viewBox="0 0 32 32" fill="none" xmlns="http://www.w3.org/2000/svg">
<circle cx="16" cy="16" r="16" fill="white"/>
<g clip-path="url(#clip0_141_37)">
<path fill-rule="evenodd" clip-rule="evenodd" d="M15.9997 5.33398C21.8909 5.33398 26.6663 10.2299 26.6663 16.2704C26.6663 21.1014 23.6135 25.1995 19.3778 26.647C18.837 26.7547 18.645 26.4132 18.645 26.122C18.645 25.7615 18.6578 24.5839 18.6578 23.1204C18.6578 22.1007 18.3165 21.4352 17.9335 21.096C20.309 20.825 22.805 19.9001 22.805 15.6996C22.805 14.5049 22.3911 13.5301 21.7063 12.7642C21.8173 12.4879 22.1831 11.3755 21.6018 9.8694C21.6018 9.8694 20.7079 9.57636 18.6717 10.9908C17.8194 10.7486 16.9063 10.6268 15.9997 10.6225C15.093 10.6268 14.181 10.7486 13.3298 10.9908C11.2914 9.57636 10.3954 9.8694 10.3954 9.8694C9.81621 11.3755 10.1821 12.4879 10.2919 12.7642C9.61034 13.5301 9.19328 14.5049 9.19328 15.6996C9.19328 19.8895 11.6839 20.8286 14.053 21.1048C13.7479 21.3779 13.4717 21.8596 13.3757 22.5668C12.7677 22.8463 11.2231 23.3299 10.2717 21.6585C10.2717 21.6585 9.70741 20.6077 8.63647 20.5309C8.63647 20.5309 7.59647 20.517 8.56394 21.1954C8.56394 21.1954 9.26261 21.5314 9.74794 22.7954C9.74794 22.7954 10.3741 24.7474 13.3415 24.0861C13.3469 25.0002 13.3565 25.8617 13.3565 26.122C13.3565 26.4111 13.1602 26.7494 12.6279 26.6481C8.389 25.2027 5.33301 21.1024 5.33301 16.2704C5.33301 10.2299 10.1095 5.33398 15.9997 5.33398Z" fill="black"/>
</g>
<defs>
<clipPath id="clip0_141_37">
<rect width="21.3333" height="21.3333" fill="white" transform="translate(5.33301 5.33398)"/>
</clipPath>
</defs>
</svg>
