<svg width="32" height="32" viewBox="0 0 32 32" fill="none" xmlns="http://www.w3.org/2000/svg">
<circle cx="16" cy="16" r="16" fill="white"/>
<g clip-path="url(#clip0_141_44)">
<path d="M10.787 12.957H7.14844V24.5864H10.787V12.957Z" fill="black"/>
<path d="M8.89095 7.4668C7.54928 7.4668 6.66699 8.33336 6.66699 9.48391C6.66699 10.6126 7.52012 11.501 8.83991 11.501H8.86908C10.2399 11.501 11.093 10.6053 11.0857 9.48391C11.0566 8.33336 10.2326 7.4668 8.89095 7.4668Z" fill="black"/>
<path d="M20.7258 12.8477C18.6404 12.8477 17.3352 13.9836 17.0945 14.7847V12.9569H13.0039C13.0549 13.9254 13.0039 24.5863 13.0039 24.5863H17.0945V18.3019C17.0945 17.9451 17.0799 17.5955 17.182 17.3479C17.4591 16.6489 18.0643 15.9207 19.1508 15.9207C20.5727 15.9207 21.2143 16.9984 21.2143 18.5713V24.5863H25.3414V18.1198C25.3414 14.5225 23.3143 12.8477 20.7258 12.8477Z" fill="black"/>
</g>
<defs>
<clipPath id="clip0_141_44">
<rect width="18.6667" height="17.12" fill="white" transform="translate(6.66699 7.4668)"/>
</clipPath>
</defs>
</svg>
