<svg width="28" height="24" viewBox="0 0 28 24" fill="none" xmlns="http://www.w3.org/2000/svg">
<path fill-rule="evenodd" clip-rule="evenodd" d="M25.6666 0H2.33331V24H18.6666L25.6666 18V0ZM18.6666 18H23.7533L18.6666 22.385V18ZM15.1666 19H5.83331V20H15.1666V19ZM15.1666 16H5.83331V17H15.1666V16ZM22.1666 14V13H5.83331V14H22.1666ZM13.9311 9.032C12.593 8.767 11.3481 8.535 11.9513 7.559C13.7865 4.589 12.4378 3 10.5 3C8.52365 3 7.20881 4.65 9.04865 7.559C9.66931 8.541 8.37781 8.773 7.06881 9.032C5.87415 9.269 5.82981 9.777 5.83331 10.667L5.83448 11H15.1643L15.1655 10.677C15.1701 9.781 15.1305 9.27 13.9311 9.032ZM22.1666 10H17.5V11H22.1666V10ZM22.1666 8V7H17.5V8H22.1666ZM22.1666 4H17.5V5H22.1666V4Z" fill="#FDFDFD"/>
</svg>
